<mxfile host="app.diagrams.net" modified="2024-06-11T16:26:39.839Z" agent="Mozilla/5.0 (Windows NT 10.0; Win64; x64) AppleWebKit/537.36 (KHTML, like Gecko) Chrome/125.0.0.0 Safari/537.36" version="24.5.3" etag="U7S0ip6dN3lGqPi92ZjV" type="github">
  <diagram name="PÃ¡gina-1" id="gRIN5D7Ixt7FjDML1L-B">
    <mxGraphModel>
      <root>
        <mxCell id="0" />
        <mxCell id="1" parent="0" />
      </root>
    </mxGraphModel>
  </diagram>
</mxfile>
